<mxfile host="65bd71144e">
    <diagram id="2_yqGNxP0lrUwjUOIC-L" name="Page-1">
        <mxGraphModel dx="1851" dy="1431" grid="1" gridSize="20" guides="1" tooltips="1" connect="1" arrows="1" fold="1" page="1" pageScale="1" pageWidth="1600" pageHeight="1600" math="0" shadow="0">
            <root>
                <mxCell id="0"/>
                <mxCell id="1" parent="0"/>
                <mxCell id="5" value="&lt;br&gt;Loadout System Structure" style="rounded=0;whiteSpace=wrap;html=1;fontSize=26;fontStyle=5;verticalAlign=top;" vertex="1" parent="1">
                    <mxGeometry x="80" y="160" width="480" height="1200" as="geometry"/>
                </mxCell>
                <mxCell id="2" value="&lt;b style=&quot;font-size: 26px;&quot;&gt;&lt;u style=&quot;font-size: 26px;&quot;&gt;Framework Data Structures&lt;/u&gt;&lt;/b&gt;" style="rounded=0;whiteSpace=wrap;html=1;align=center;verticalAlign=middle;fontSize=26;" parent="1" vertex="1">
                    <mxGeometry width="600" height="80" as="geometry"/>
                </mxCell>
                <mxCell id="3" value="&lt;b&gt;&lt;u&gt;&lt;font style=&quot;font-size: 20px;&quot;&gt;Faction ID registry&lt;/font&gt;&lt;/u&gt;&lt;/b&gt;&lt;br&gt;bax_registry_tags = [&lt;br&gt;&lt;span style=&quot;white-space: pre;&quot;&gt;&#9;&lt;/span&gt;&quot;blufor&quot;,&lt;br&gt;&lt;span style=&quot;white-space: pre;&quot;&gt;&#9;&lt;/span&gt;&quot;opfor&quot;,&lt;br&gt;&lt;span style=&quot;white-space: pre;&quot;&gt;&#9;&lt;/span&gt;&quot;indfor&quot;,&lt;br&gt;&lt;span style=&quot;white-space: pre;&quot;&gt;&#9;&lt;/span&gt;&quot;civilian&quot;&lt;br&gt;]" style="rounded=0;whiteSpace=wrap;html=1;fontSize=16;align=left;" vertex="1" parent="1">
                    <mxGeometry x="160" y="320" width="320" height="160" as="geometry"/>
                </mxCell>
                <mxCell id="4" value="&lt;b&gt;&lt;u&gt;&lt;font style=&quot;font-size: 20px;&quot;&gt;Faction Loadout Structure&lt;br&gt;&lt;/font&gt;&lt;/u&gt;&lt;/b&gt;EX: Blufor&lt;br&gt;bax_registry_loadout_blufor = [&lt;br&gt;&lt;span style=&quot;white-space: pre;&quot;&gt;&#9;&lt;/span&gt;[&quot;rif&quot;,&quot;NATO Rifleman&quot;],&lt;br&gt;&lt;span style=&quot;white-space: pre;&quot;&gt;&#9;&lt;/span&gt;[&quot;sl&quot;,&quot;NATO Squad Leader&quot;]&lt;br&gt;]&lt;br&gt;&lt;br&gt;bax_loadout_blufor_rif = [&lt;br&gt;&lt;span style=&quot;white-space: pre;&quot;&gt;&#9;&lt;/span&gt;&quot;NATO Rifleman&quot;,&lt;br&gt;&lt;span style=&quot;white-space: pre;&quot;&gt;&#9;&lt;/span&gt;[*Loadout Array*],&lt;br&gt;&lt;span style=&quot;white-space: pre;&quot;&gt;&#9;&lt;/span&gt;[*Trait Array]&lt;br&gt;]&lt;br&gt;&lt;br&gt;bax_loadout_blufor_sl = ...&lt;br&gt;&lt;br&gt;bax_registry_class_blufor = [&lt;br&gt;&lt;span style=&quot;white-space: pre;&quot;&gt;&#9;&lt;/span&gt;[&quot;inf&quot;,&quot;NATO Infantry&quot;]&lt;br&gt;]&lt;br&gt;&lt;br&gt;bax_class_blufor_infantry = [&lt;br&gt;&lt;span style=&quot;white-space: pre;&quot;&gt;&#9;&lt;/span&gt;&quot;NATO Infantry&quot;,&lt;br&gt;&lt;span style=&quot;white-space: pre;&quot;&gt;&#9;&lt;/span&gt;[&lt;br&gt;&lt;span style=&quot;white-space: pre;&quot;&gt;&#9;&lt;/span&gt;&lt;span style=&quot;white-space: pre;&quot;&gt;&#9;&lt;/span&gt;[&quot;rif&quot;,&quot;NATO Rifleman&quot;],&lt;br&gt;&lt;span style=&quot;white-space: pre;&quot;&gt;&#9;&lt;/span&gt;&lt;span style=&quot;white-space: pre;&quot;&gt;&#9;&lt;/span&gt;[&quot;sl&quot;,&quot;NATO Squad Leader&quot;]&lt;br&gt;&lt;span style=&quot;white-space: pre;&quot;&gt;&#9;&lt;/span&gt;],&lt;br&gt;&lt;span style=&quot;white-space: pre;&quot;&gt;&#9;&lt;/span&gt;[] // Arsenal array?&lt;br&gt;]&lt;br&gt;&lt;br&gt;bax_registry_crate_blufor = [&lt;br&gt;&lt;span style=&quot;white-space: pre;&quot;&gt;&#9;&lt;/span&gt;[&quot;supply&quot;,&quot;NATO Resupply&quot;]&lt;br&gt;]&lt;br&gt;&lt;br&gt;bax_crate_blufor_supply = [&lt;br&gt;&lt;span style=&quot;white-space: pre;&quot;&gt;&#9;&lt;/span&gt;[&quot;ACE_Vector&quot;,5] // [itemName, count]&lt;br&gt;]" style="rounded=0;whiteSpace=wrap;html=1;fontSize=16;align=left;verticalAlign=top;" vertex="1" parent="1">
                    <mxGeometry x="160" y="560" width="320" height="700" as="geometry"/>
                </mxCell>
            </root>
        </mxGraphModel>
    </diagram>
</mxfile>